<svg xmlns="http://www.w3.org/2000/svg" xmlns:xlink="http://www.w3.org/1999/xlink" width="182.92" height="79.44" viewBox="0 0 182.92 79.44">
  <defs>
    <linearGradient id="linear-gradient" x1="0.5" x2="0.5" y2="1" gradientUnits="objectBoundingBox">
      <stop offset="0" stop-color="#05bcfd"/>
      <stop offset="1" stop-color="#0599fb"/>
    </linearGradient>
    <filter id="Trazado_342" x="0" y="0" width="182.92" height="79.44" filterUnits="userSpaceOnUse">
      <feOffset dy="4" input="SourceAlpha"/>
      <feGaussianBlur stdDeviation="7.5" result="blur"/>
      <feFlood flood-color="#009dff" flood-opacity="0.322"/>
      <feComposite operator="in" in2="blur"/>
      <feComposite in="SourceGraphic"/>
    </filter>
  </defs>
  <g transform="matrix(1, 0, 0, 1, 0, 0)" filter="url(#Trazado_342)">
    <path id="Trazado_342-2" data-name="Trazado 342" d="M77.82,33.2c1.96,2.4,5.6,4.28,10.52,4.28,6.4,0,10.52-3.24,10.52-7.84,0-4-3.52-6.12-6.24-6.4,2.96-.52,5.84-2.72,5.84-6.08,0-4.44-3.84-7.24-10.08-7.24a13.131,13.131,0,0,0-10.2,4.24l2.8,3.52a9.733,9.733,0,0,1,6.8-2.8c2.8,0,4.96,1.08,4.96,3.2,0,2-1.96,2.96-4.92,2.96-1,0-2.84,0-3.32-.04v4.96c.4-.04,2.2-.04,3.32-.04,3.72,0,5.36,1,5.36,3.16,0,2.04-1.8,3.44-5.04,3.44a10.624,10.624,0,0,1-7.36-3.04Zm40.52,11.16V34.52a7.382,7.382,0,0,0,5.96,2.96c4.96,0,8.56-3.72,8.56-10.16s-3.6-10.12-8.56-10.12a7.464,7.464,0,0,0-5.96,2.92V17.68h-5.08V44.36Zm9.24-17.04c0,3.36-1.96,5.64-4.88,5.64a5.818,5.818,0,0,1-4.36-2.2V23.92a5.69,5.69,0,0,1,4.36-2.2C125.62,21.72,127.58,24,127.58,27.32ZM148.26,37h5.08V24.52c0-5.56-4.04-7.32-8.44-7.32a12.673,12.673,0,0,0-8.44,3.04l1.92,3.4a8.129,8.129,0,0,1,5.64-2.28c2.56,0,4.24,1.28,4.24,3.24v2.68a7.808,7.808,0,0,0-6.12-2.36c-3.08,0-6.72,1.64-6.72,6.16,0,4.32,3.64,6.4,6.72,6.4A8,8,0,0,0,148.26,35Zm0-4.64a5.081,5.081,0,0,1-4.08,1.68c-2,0-3.64-1.04-3.64-2.84,0-1.88,1.64-2.92,3.64-2.92a5.081,5.081,0,0,1,4.08,1.68Zm8.44,2.12a13.005,13.005,0,0,0,8.64,3c5.36,0,8.36-2.68,8.36-6.2,0-4.8-4.44-5.68-7.76-6.32-2.16-.44-3.68-.88-3.68-2.08,0-1.12,1.2-1.8,3.04-1.8a8.15,8.15,0,0,1,5.72,2.24l2.04-3.48a12.341,12.341,0,0,0-7.8-2.64c-5.08,0-7.92,2.84-7.92,6.08,0,4.6,4.28,5.4,7.6,6.04,2.2.44,3.88.92,3.88,2.28,0,1.2-1.04,1.96-3.24,1.96a11.058,11.058,0,0,1-6.68-2.64Zm29.72,3a9.805,9.805,0,0,0,10.24-10.16,10.22,10.22,0,0,0-20.44,0A9.8,9.8,0,0,0,186.42,37.48Zm0-4.52c-3.16,0-4.92-2.6-4.92-5.64,0-3,1.76-5.6,4.92-5.6s4.96,2.6,4.96,5.6C191.38,30.36,189.58,32.96,186.42,32.96Zm12.32,1.52a13.005,13.005,0,0,0,8.64,3c5.36,0,8.36-2.68,8.36-6.2,0-4.8-4.44-5.68-7.76-6.32-2.16-.44-3.68-.88-3.68-2.08,0-1.12,1.2-1.8,3.04-1.8a8.15,8.15,0,0,1,5.72,2.24l2.04-3.48a12.341,12.341,0,0,0-7.8-2.64c-5.08,0-7.92,2.84-7.92,6.08,0,4.6,4.28,5.4,7.6,6.04,2.2.44,3.88.92,3.88,2.28,0,1.2-1.04,1.96-3.24,1.96a11.058,11.058,0,0,1-6.68-2.64Z" transform="translate(-55.32 8.58)" fill="url(#linear-gradient)"/>
  </g>
</svg>
