<?xml version="1.0" encoding="utf-8"?>
<svg viewBox="-86.03 67.196 365
 500" style="" xmlns="http://www.w3.org/2000/svg">
  <path d="M -88.585 279.033 L -87.638 213.714 L -86.691 148.393 L -85.742 83.07 L -84.797 17.749 L -85.742 83.07 L -86.691 148.393 L -87.638 213.714 L -88.585 279.033 Z M 430.205 15.018 L 300.831 15.127 L 171.457 15.235 L 42.085 15.345 L -87.293 15.454 L -88.252 81.658 L -89.212 147.861 L -90.171 214.066 L -91.133 280.272 L -91.699 280.272 L -92.269 280.274 L -92.837 280.274 L -93.406 280.279 L -67.282 305.357 L -41.162 330.435 L -15.04 355.513 L 11.081 380.591 L 15.966 385.225 L 20.848 389.86 L 25.733 394.497 L 30.615 399.131 L 35.499 403.766 L 40.383 408.4 L 45.267 413.035 L 50.149 417.67 L 59.916 426.938 L 69.679 436.205 L 79.445 445.476 L 89.21 454.74 C 90.845 456.292 92.48 457.796 94.117 459.254 C 95.755 460.712 97.393 462.124 99.032 463.487 C 100.672 464.85 102.307 466.165 103.948 467.432 C 105.584 468.699 107.221 469.916 108.854 471.086 C 110.491 472.253 112.135 473.373 113.775 474.449 C 115.415 475.524 117.061 476.551 118.702 477.534 C 120.343 478.513 121.988 479.443 123.63 480.327 C 125.272 481.209 126.911 482.043 128.553 482.827 C 130.191 483.611 131.782 484.35 133.345 485.04 C 134.909 485.732 136.449 486.371 137.987 486.969 C 139.526 487.562 141.065 488.109 142.631 488.605 C 144.198 489.102 145.787 489.55 147.427 489.953 C 149.071 490.348 150.772 490.698 152.506 491.001 C 154.236 491.302 155.998 491.555 157.759 491.763 C 159.521 491.968 161.284 492.127 163.015 492.237 C 164.75 492.344 166.45 492.404 168.09 492.412 C 169.734 492.424 171.379 492.385 173.031 492.297 C 174.681 492.208 176.332 492.07 177.986 491.885 C 179.637 491.704 181.29 491.47 182.936 491.188 C 184.585 490.906 186.231 490.578 187.869 490.2 C 189.512 489.825 191.156 489.397 192.802 488.92 C 194.445 488.443 196.091 487.918 197.739 487.345 C 199.384 486.769 201.028 486.148 202.672 485.478 C 204.315 484.811 205.954 484.092 207.589 483.329 C 209.221 482.566 210.86 481.753 212.497 480.891 C 214.133 480.028 215.772 479.116 217.411 478.157 C 219.048 477.197 220.683 476.19 222.317 475.136 C 223.95 474.08 225.582 472.978 227.213 471.83 C 228.839 470.685 230.468 469.487 232.1 468.239 C 233.728 466.995 235.361 465.701 236.992 464.358 C 238.621 463.017 240.249 461.625 241.878 460.188 C 243.508 458.749 245.135 457.266 246.761 455.734 L 251.611 451.163 L 256.464 446.591 L 261.315 442.018 L 266.165 437.449 L 271.012 432.876 L 275.864 428.305 L 280.712 423.733 L 285.565 419.162 L 320.453 384.619 L 355.348 350.077 L 390.239 315.532 L 425.132 280.992 L 425.156 280.967 L 425.179 280.945 L 425.2 280.922 L 425.223 280.897 L 425.686 280.44 L 426.152 279.981 L 426.613 279.524 L 427.077 279.064 L 426.901 279.067 L 426.727 279.067 L 426.551 279.067 L 426.378 279.067 L 427.333 213.057 L 428.291 147.043 L 429.248 81.03 L 430.205 15.018 Z" style="stroke-width: 0px; stroke-miterlimit: 1; fill: rgb(255, 255, 255); transform-origin: 167.21px 253.828px;"/>
  <path d="M 49.62 260.26 C 47.085 262.922 44.531 265.264 41.982 267.259 C 39.433 269.255 36.855 270.93 34.288 272.256 C 31.72 273.584 29.117 274.585 26.53 275.24 C 23.946 275.893 21.319 276.216 18.722 276.196 C 16.125 276.176 13.491 275.81 10.884 275.117 C 8.28 274.419 5.643 273.378 3.032 272.009 C 0.422 270.643 -2.206 268.926 -4.824 266.891 C -7.436 264.855 -10.066 262.472 -12.687 259.77 L -28.345 243.62 L -36.176 235.544 L -44.006 227.467 L -85.899 183.767 L 119.91 183.43 L 119.152 184.268 L 64.754 244.356 L 57.188 252.308 Z M 56.464 251.618 L 64.025 243.671 L 117.652 184.434 L -83.559 184.763 L -43.285 226.774 L -35.458 234.848 L -27.627 242.924 L -11.969 259.074 C -9.372 261.754 -6.793 264.09 -4.21 266.102 C -1.625 268.113 0.928 269.781 3.496 271.123 C 6.057 272.47 8.592 273.471 11.142 274.151 C 13.689 274.832 16.197 275.176 18.73 275.196 C 21.263 275.216 23.762 274.912 26.284 274.27 C 28.815 273.633 31.31 272.674 33.828 271.368 C 36.351 270.068 38.853 268.443 41.366 266.471 C 43.885 264.502 46.385 262.208 48.896 259.57 Z" style="fill: none;"/>
  <path style="fill: rgb(216, 216, 216); stroke: rgb(0, 0, 0);" d="M 13.169 247.562 C 13.169 247.562 9.658 245.456 9.658 244.988"/>
</svg>