<svg id="Capa_1-2" xmlns="http://www.w3.org/2000/svg" xmlns:xlink="http://www.w3.org/1999/xlink" width="84.854" height="81.921" viewBox="0 0 84.854 81.921">
  <defs>
    <linearGradient id="linear-gradient" x1="0.494" y1="-0.081" x2="0.507" y2="1.175" gradientUnits="objectBoundingBox">
      <stop offset="0" stop-color="#007af8"/>
      <stop offset="1" stop-color="#4056ea"/>
    </linearGradient>
    <linearGradient id="linear-gradient-2" x1="0.493" y1="0.001" x2="0.51" y2="1.189" gradientUnits="objectBoundingBox">
      <stop offset="0" stop-color="#4056ea"/>
      <stop offset="1" stop-color="#552fda"/>
    </linearGradient>
    <linearGradient id="linear-gradient-3" x1="0.341" y1="-0.001" x2="0.68" y2="1.068" gradientUnits="objectBoundingBox">
      <stop offset="0" stop-color="#00e0fc"/>
      <stop offset="1" stop-color="#00b0f4"/>
    </linearGradient>
    <linearGradient id="linear-gradient-4" x1="0.026" y1="0.294" x2="0.892" y2="0.667" xlink:href="#linear-gradient"/>
    <linearGradient id="linear-gradient-5" x1="0.214" y1="0.2" x2="1.327" y2="0.72" xlink:href="#linear-gradient-2"/>
    <linearGradient id="linear-gradient-6" x1="0.706" y1="-0.17" x2="0.298" y2="1.165" xlink:href="#linear-gradient"/>
  </defs>
  <g id="Grupo_18" data-name="Grupo 18">
    <g id="Grupo_14" data-name="Grupo 14" transform="translate(0 54.485)">
      <g id="Grupo_12" data-name="Grupo 12">
        <path id="Trazado_9" data-name="Trazado 9" d="M13.627,182.982v-8.816a7.024,7.024,0,0,1-5.608,2.651c-4.629,0-8.019-3.331-8.019-9.1s3.39-9.066,8.019-9.066a7.09,7.09,0,0,1,5.608,2.617v-2.188h4.818v23.9Zm0-18.311a5.377,5.377,0,0,0-4.1-1.971c-2.71,0-4.592,2.043-4.592,5.017s1.882,5.052,4.592,5.052a5.444,5.444,0,0,0,4.1-1.971Z" transform="translate(0 -158.65)" fill="#253359"/>
        <path id="Trazado_10" data-name="Trazado 10" d="M79.794,175.031a8.713,8.713,0,0,1-6.4,2.617c-3.991,0-5.873-2.078-5.873-5.447V159.91H72.3v10.5c0,2.4,1.319,3.19,3.352,3.19a5.446,5.446,0,0,0,4.142-1.971V159.913h4.78v17.309h-4.78v-2.188Z" transform="translate(-44.332 -159.477)" fill="#253359"/>
        <path id="Trazado_11" data-name="Trazado 11" d="M143.264,175.031a8.713,8.713,0,0,1-6.4,2.617c-3.991,0-5.873-2.078-5.873-5.447V159.91h4.781v10.5c0,2.4,1.319,3.19,3.352,3.19a5.446,5.446,0,0,0,4.142-1.971V159.913h4.781v17.309h-4.781v-2.188Z" transform="translate(-86.005 -159.477)" fill="#253359"/>
        <path id="Trazado_12" data-name="Trazado 12" d="M191.07,167.717c0-4.911,3.613-9.066,9.6-9.066s9.637,4.155,9.637,9.066-3.613,9.1-9.637,9.1S191.07,172.662,191.07,167.717Zm14.269,0c0-2.689-1.693-5.017-4.667-5.017s-4.629,2.328-4.629,5.017,1.655,5.052,4.629,5.052S205.339,170.44,205.339,167.717Z" transform="translate(-125.452 -158.65)" fill="#253359"/>
      </g>
      <g id="Grupo_13" data-name="Grupo 13" transform="translate(24.328 21.155)">
        <path id="Trazado_13" data-name="Trazado 13" d="M70.84,220.5h3.984v.673H71.6v1.961h3.163v.673H71.6v2.771H70.84V220.5Z" transform="translate(-70.84 -220.414)" fill="#253359"/>
        <path id="Trazado_14" data-name="Trazado 14" d="M85.29,221.017a.46.46,0,0,1,.92,0,.46.46,0,1,1-.92,0Zm.12,1.2h.683v4.4H85.41Z" transform="translate(-80.328 -220.454)" fill="#253359"/>
        <path id="Trazado_15" data-name="Trazado 15" d="M94.834,226.711c0-.776-.392-1.02-.986-1.02a1.71,1.71,0,0,0-1.305.683v3.218H91.86v-4.4h.683v.639a2.183,2.183,0,0,1,1.569-.749,1.251,1.251,0,0,1,1.4,1.422v3.091h-.683Z" transform="translate(-84.641 -223.421)" fill="#253359"/>
        <path id="Trazado_16" data-name="Trazado 16" d="M109.042,229.091a1.9,1.9,0,0,1-1.46.611,1.457,1.457,0,1,1,0-2.909,1.851,1.851,0,0,1,1.46.6V226.6c0-.594-.474-.931-1.113-.931a1.751,1.751,0,0,0-1.35.611l-.319-.474a2.309,2.309,0,0,1,1.758-.728c.931,0,1.7.419,1.7,1.487v3.026h-.683v-.5Zm0-1.257a1.474,1.474,0,0,0-1.212-.546.969.969,0,1,0,0,1.923,1.474,1.474,0,0,0,1.212-.546Z" transform="translate(-93.951 -223.421)" fill="#253359"/>
        <path id="Trazado_17" data-name="Trazado 17" d="M123.984,226.711c0-.776-.391-1.02-.986-1.02a1.71,1.71,0,0,0-1.305.683v3.218h-.683v-4.4h.683v.639a2.183,2.183,0,0,1,1.569-.749,1.251,1.251,0,0,1,1.4,1.422v3.091h-.683Z" transform="translate(-103.78 -223.421)" fill="#253359"/>
        <path id="Trazado_18" data-name="Trazado 18" d="M137.358,225.08a1.887,1.887,0,0,1,1.614.766l-.457.419a1.3,1.3,0,0,0-1.12-.574,1.71,1.71,0,0,0,0,3.4,1.32,1.32,0,0,0,1.12-.574l.457.419a1.886,1.886,0,0,1-1.614.766,2.314,2.314,0,0,1,0-4.623Z" transform="translate(-113.071 -223.421)" fill="#253359"/>
        <path id="Trazado_19" data-name="Trazado 19" d="M150.747,225.074a2.139,2.139,0,0,1,2.116,2.363v.172H149.3a1.55,1.55,0,0,0,1.587,1.521,1.923,1.923,0,0,0,1.36-.556l.33.446a2.4,2.4,0,0,1-1.751.673,2.314,2.314,0,0,1-.072-4.622Zm-1.449,2.033h2.892a1.427,1.427,0,0,0-1.449-1.466,1.467,1.467,0,0,0-1.439,1.466Z" transform="translate(-121.882 -223.415)" fill="#253359"/>
        <path id="Trazado_20" data-name="Trazado 20" d="M170.808,222.62h-.728v-.6h.728v-.337a1.326,1.326,0,0,1,1.944-1.278l-.172.512a.745.745,0,0,0-.392-.1c-.446,0-.694.309-.694.865v.337h.893v.6h-.893v3.8h-.683v-3.8Z" transform="translate(-135.998 -220.25)" fill="#253359"/>
        <path id="Trazado_21" data-name="Trazado 21" d="M178.68,227.378a2.181,2.181,0,1,1,2.177,2.315A2.16,2.16,0,0,1,178.68,227.378Zm3.637,0a1.48,1.48,0,1,0-1.46,1.7A1.531,1.531,0,0,0,182.317,227.378Z" transform="translate(-141.645 -223.415)" fill="#253359"/>
        <path id="Trazado_22" data-name="Trazado 22" d="M194.863,225.223h.683v.711a1.878,1.878,0,0,1,1.466-.8v.7a1.281,1.281,0,0,0-.275-.027,1.621,1.621,0,0,0-1.2.7v3.118h-.683v-4.4Z" transform="translate(-152.268 -223.454)" fill="#253359"/>
        <path id="Trazado_23" data-name="Trazado 23" d="M212.8,229.129a1.819,1.819,0,0,1-1.394.567,1.468,1.468,0,0,1-1.532-1.46,1.422,1.422,0,0,1,1.532-1.4,1.773,1.773,0,0,1,1.394.539v-.611c0-.446-.385-.738-.965-.738a1.864,1.864,0,0,0-1.284.519l-.436-.776a2.89,2.89,0,0,1,1.923-.694c1,0,1.923.4,1.923,1.669v2.844H212.8v-.457Zm0-1.147a1.162,1.162,0,0,0-.931-.381c-.457,0-.831.237-.831.666s.374.646.831.646a1.163,1.163,0,0,0,.931-.381v-.546Z" transform="translate(-162.124 -223.415)" fill="#253359"/>
        <path id="Trazado_24" data-name="Trazado 24" d="M225.38,220.51h1.157v6.082H225.38V220.51Z" transform="translate(-172.307 -220.421)" fill="#253359"/>
        <path id="Trazado_25" data-name="Trazado 25" d="M232.36,220.51h1.157v6.082H232.36V220.51Z" transform="translate(-176.89 -220.421)" fill="#253359"/>
        <path id="Trazado_26" data-name="Trazado 26" d="M239.668,225.215a.746.746,0,0,1,.738.738.733.733,0,0,1-1.466,0A.746.746,0,0,1,239.668,225.215Zm-.7-4.7h1.394l-.182,4.1h-1.02Z" transform="translate(-181.21 -220.421)" fill="#253359"/>
      </g>
    </g>
    <g id="Grupo_17" data-name="Grupo 17" transform="translate(16.55)">
      <path id="Trazado_27" data-name="Trazado 27" d="M81.189,100.877,63,100.671a5.414,5.414,0,0,1-4.186-2.452L49.8,82.559c-.78-1.353-.158-2.449,1.384-2.449H69.372a5.421,5.421,0,0,1,4.269,2.48l9.012,15.866c.769,1.353.11,2.435-1.466,2.418Z" transform="translate(-49.024 -52.598)" fill="url(#linear-gradient)"/>
      <g id="Grupo_15" data-name="Grupo 15" transform="translate(0.512 25.747)">
        <path id="Trazado_28" data-name="Trazado 28" d="M49.68,82.73Z" transform="translate(-49.68 -80.065)" fill="#fff"/>
        <path id="Trazado_29" data-name="Trazado 29" d="M84.061,93.316,75.049,77.45a5.422,5.422,0,0,0-4.269-2.48H52.586a1.646,1.646,0,0,0-1.6.786h0l-.859,1.59a1.758,1.758,0,0,1,1.49-.608H69.812a5.421,5.421,0,0,1,4.269,2.48l9.011,15.866a1.8,1.8,0,0,1,.234,1.545l.831-1.528h0a1.643,1.643,0,0,0-.1-1.786Z" transform="translate(-49.975 -74.97)" fill="url(#linear-gradient-2)"/>
      </g>
      <path id="Trazado_30" data-name="Trazado 30" d="M50,21.038l18.428-.209a5.484,5.484,0,0,0,4.241-2.483L81.8,2.48c.786-1.37.161-2.48-1.4-2.48H61.972a5.485,5.485,0,0,0-4.324,2.514L48.517,18.586c-.78,1.37-.113,2.469,1.487,2.449Z" transform="translate(-48.191)" fill="url(#linear-gradient-3)"/>
      <path id="Trazado_31" data-name="Trazado 31" d="M148.129,53.773l9.094-15.124a5.253,5.253,0,0,0,.11-4.7l-8.338-15.42c-.721-1.329-1.94-1.377-2.727-.1L137,33.442a5.256,5.256,0,0,0-.127,4.787l8.51,15.523c.728,1.326,1.954,1.332,2.744.021Z" transform="translate(-106.08 -11.487)" fill="url(#linear-gradient-4)"/>
      <g id="Grupo_16" data-name="Grupo 16" transform="translate(27.759 6.007)">
        <path id="Trazado_32" data-name="Trazado 32" d="M140.565,53.749l-8.51-15.523a5.256,5.256,0,0,1,.127-4.787l9.266-15.021a1.691,1.691,0,0,1,1.278-.92V17.49h-2.48a1.689,1.689,0,0,0-1.319.927l-9.266,15.021a5.256,5.256,0,0,0-.127,4.787l8.51,15.523a1.606,1.606,0,0,0,1.394,1h2.435a1.655,1.655,0,0,1-1.312-1Z" transform="translate(-129.019 -17.49)" fill="url(#linear-gradient-5)"/>
        <path id="Trazado_33" data-name="Trazado 33" d="M166.7,125.97Z" transform="translate(-153.759 -88.715)" fill="#fff"/>
      </g>
      <path id="Trazado_34" data-name="Trazado 34" d="M83.581,5.11h0L82.523,2.95a1.959,1.959,0,0,1-.292,1.466L73.1,20.279a5.49,5.49,0,0,1-4.241,2.483l-18.428.209a1.831,1.831,0,0,1-1.59-.639l1.075,2.284h0a1.709,1.709,0,0,0,1.693.824l18.428-.209a5.484,5.484,0,0,0,4.241-2.483L83.409,6.886a1.754,1.754,0,0,0,.168-1.772Z" transform="translate(-48.617 -1.937)" fill="url(#linear-gradient-6)"/>
    </g>
  </g>
</svg>
